PathFileType	4	(X/Y/Z)	C:/Users/opensim2020/Desktop/walking_exp_matlab/subject06_walking15_straight_02.trc	
DataRate	CameraRate	NumFrames	NumMarkers	Units	OrigDataRate	OrigDataStartFrame	OrigNumFrames	
100.00	100.00	4	47	mm	100.00	1655	218	
Frame#	Time	LFHD			RFHD			LBHD			RBHD			C7			T10			CLAV			STRN			RBAK			LSHO			LUPA			LELB			LFRM			LWRA			LWRB			LFIN			RSHO			RUPA			RELB			RFRM			RWRA			RWRB			RFIN			LASI			RASI			LPSI			RPSI			LTHI			LKNE			LTIB			LANK			LHEE			LTOE			RTHI			RKNE			RTIB			RANK			RHEE			RTOE			*39			*40			*41			*42			*43			*44			*45			*46			
		X1	Y1	Z1	X2	Y2	Z2	X3	Y3	Z3	X4	Y4	Z4	X5	Y5	Z5	X6	Y6	Z6	X7	Y7	Z7	X8	Y8	Z8	X9	Y9	Z9	X10	Y10	Z10	X11	Y11	Z11	X12	Y12	Z12	X13	Y13	Z13	X14	Y14	Z14	X15	Y15	Z15	X16	Y16	Z16	X17	Y17	Z17	X18	Y18	Z18	X19	Y19	Z19	X20	Y20	Z20	X21	Y21	Z21	X22	Y22	Z22	X23	Y23	Z23	X24	Y24	Z24	X25	Y25	Z25	X26	Y26	Z26	X27	Y27	Z27	X28	Y28	Z28	X29	Y29	Z29	X30	Y30	Z30	X31	Y31	Z31	X32	Y32	Z32	X33	Y33	Z33	X34	Y34	Z34	X35	Y35	Z35	X36	Y36	Z36	X37	Y37	Z37	X38	Y38	Z38	X39	Y39	Z39	X40	Y40	Z40	X41	Y41	Z41	X42	Y42	Z42	X43	Y43	Z43	X44	Y44	Z44	X45	Y45	Z45	X46	Y46	Z46	X47	Y47	Z47	

164	1.630	-934.64752	-318.08145	1662.12781	-1065.98523	-329.97415	1656.92627	-948.80511	-185.67635	1606.86523	-1077.87708	-199.39688	1607.05615	-1005.27435	-191.79007	1449.37292	-1016.48773	-164.59756	1119.48682	-1005.18500	-304.15326	1374.80933	-1004.10358	-346.68387	1200.34778	-1086.87720	-122.96367	1278.68774	-843.08551	-246.12234	1402.54907	-777.67804	-224.73773	1198.56494	-772.02411	-205.79747	1087.31055	-749.28455	-210.72887	937.92719	-783.80859	-261.88446	816.33698	-755.55054	-196.29010	819.28662	-750.80481	-224.13770	733.14832	-1166.56567	-257.14169	1408.82227	-1261.09656	-220.44598	1213.84070	-1275.96094	-237.45294	1094.15979	-1285.24902	-292.40753	988.85638	-1238.89832	-400.18198	890.08038	-1279.73425	-353.16122	866.39777	-1276.27405	-417.50180	813.34735	-916.37531	-349.36951	964.88739	-1134.43567	-336.63705	968.77936	-933.38470	-189.43497	984.19873	-1102.02612	-186.81561	990.04584	-849.21985	-366.12988	658.00714	-875.43109	-422.85220	505.89914	-881.75909	-343.17923	266.05188	-919.11780	-306.36670	97.20002	-969.82666	-269.77533	87.44001	-906.31750	-438.79156	43.07462	-1170.78662	-276.15900	629.41132	-1144.34985	-271.41043	503.77954	-1135.58972	-183.35327	249.33493	-1086.61755	-132.52103	70.37614	-1045.53442	-86.74662	49.58409	-1075.00452	-282.82974	30.69161	-1001.20789	-223.36520	1702.58350																					 
165	1.640	-934.07422	-328.24094	1661.08948	-1065.35681	-340.31979	1655.98804	-948.57172	-196.04402	1605.55627	-1077.52966	-209.72289	1606.17737	-1005.15747	-202.17020	1448.13135	-1016.68860	-174.34956	1118.54053	-1005.18402	-314.34460	1373.69714	-1004.50177	-356.66959	1199.23926	-1087.09216	-132.90100	1277.98767	-843.05078	-256.21603	1401.30444	-777.44214	-231.40233	1197.97046	-771.62231	-210.59793	1087.07642	-748.81830	-213.32123	937.58728	-783.50293	-262.45288	815.21771	-754.41943	-197.41592	819.31128	-750.05225	-224.28671	732.59937	-1166.51038	-267.41699	1408.11536	-1261.63379	-231.45226	1213.28430	-1276.66040	-249.03105	1093.88867	-1285.53711	-306.13065	989.94348	-1238.40161	-416.17575	894.15778	-1279.27527	-369.92868	869.18658	-1275.41711	-435.61105	817.75446	-916.81531	-359.15921	964.10779	-1134.70300	-345.96289	967.55731	-932.99835	-199.25647	983.23444	-1101.69250	-196.14423	989.02136	-849.12195	-376.01642	657.11707	-875.53918	-432.50177	505.11011	-881.60052	-365.60669	260.72708	-918.90625	-339.86227	89.77258	-969.72552	-303.92749	78.01503	-905.61096	-475.39206	43.34945	-1170.55481	-283.02945	628.36627	-1144.47083	-276.67798	502.74155	-1135.52356	-185.70503	249.22029	-1086.71350	-132.98050	70.83373	-1045.44434	-86.10287	51.01480	-1075.07104	-283.11063	30.56320	-1000.61292	-233.58774	1701.50500																					 
166	1.650	-933.52545	-338.54086	1659.73804	-1064.72656	-350.57178	1654.94336	-948.19147	-206.33270	1604.28308	-1077.12659	-220.11403	1605.02222	-1005.00104	-212.53297	1447.24829	-1016.59351	-184.13014	1117.53906	-1005.09558	-324.55121	1372.49292	-1004.83313	-366.61218	1198.00842	-1087.33691	-142.94974	1277.20032	-843.00586	-266.01624	1399.91785	-777.15802	-238.07622	1197.40234	-771.19080	-215.57076	1086.85046	-747.88422	-215.88680	937.37610	-782.55762	-264.30637	814.49664	-753.87726	-199.00026	819.05078	-749.22070	-225.12083	732.21881	-1166.37402	-277.73691	1407.28955	-1261.89636	-242.22658	1212.55444	-1277.34375	-260.63718	1093.52063	-1285.81934	-319.83459	990.91425	-1237.81128	-431.91864	898.02405	-1278.68152	-386.45377	871.67175	-1274.44873	-453.46722	822.09869	-917.09967	-369.02609	963.12451	-1134.91895	-355.14410	966.28137	-932.58759	-209.06145	982.21881	-1101.32947	-205.57677	987.92816	-849.06647	-385.07895	655.62909	-875.51251	-441.62875	503.86752	-881.37714	-387.84787	255.76227	-918.61011	-373.24289	83.44991	-971.40082	-340.72000	67.96901	-905.27466	-511.56335	44.52237	-1170.49084	-289.82697	627.45111	-1144.67786	-281.94211	501.84274	-1135.47949	-187.90659	249.16400	-1086.60449	-133.33931	71.33855	-1045.14148	-86.06707	51.97081	-1074.92639	-282.91635	30.51073	-1000.07758	-243.87662	1700.37207																					 
167	1.660	-932.92920	-348.79947	1658.44470	-1064.18225	-360.92197	1653.85388	-947.66998	-216.61459	1602.89014	-1076.62695	-230.43616	1603.88330	-1004.90570	-222.85649	1445.97070	-1016.48926	-193.97191	1116.32996	-1004.93536	-334.78061	1371.16443	-1005.11151	-376.51797	1196.68372	-1087.37012	-152.86679	1276.34888	-842.89844	-275.84769	1398.51282	-776.87903	-244.99269	1196.80078	-770.75763	-220.72964	1086.67456	-747.33728	-219.01149	937.15735	-781.92877	-265.85162	813.67084	-753.21698	-200.91515	818.90594	-748.52710	-226.19887	731.87201	-1166.15405	-288.05627	1406.36169	-1262.47791	-253.38374	1211.84717	-1277.89050	-272.30109	1092.98083	-1285.94580	-333.47208	991.74274	-1237.20166	-447.56699	901.73950	-1278.27063	-402.78687	874.22559	-1273.46216	-470.83374	826.02850	-917.54156	-378.81015	962.06989	-1135.07422	-364.58328	965.01086	-932.16742	-219.17590	981.02875	-1100.91931	-215.11433	986.70544	-849.00665	-393.40192	653.68347	-875.45959	-450.18466	502.12262	-881.16266	-409.84753	251.18593	-918.61218	-406.63907	78.11588	-971.36719	-374.83817	60.97195	-905.59229	-546.84259	46.49289	-1170.44238	-296.65192	626.59143	-1144.86511	-286.87512	500.87283	-1135.44153	-190.07610	249.18604	-1086.49316	-133.74104	71.94852	-1044.91052	-86.93496	52.41693	-1074.87659	-283.09039	30.36141	-999.41644	-254.13542	1699.06140																					 
